<svg xmlns="http://www.w3.org/2000/svg" xml:space="preserve" width="512" height="512" viewBox="0 0 135.467 135.467"><path d="m50.706 2.791-15.553.01v43.253l.85 1.32-.873 6.048-.008 3.747 1.262 3.372v2.426l1.03 2.26.067 6.014 1.063 2.99-.132 4.253.93 2.26 1.661 1.528-1.554-.73-1.14-1.081-.13 4.137 2.985 7.693-5.92 14.191-.188 6.297 1.785 3.666 3.854 1.973 6.108 1.504-.282 2.82-4.323-.283-5.45 3.102-2.726.47-1.75 2.96v3.795h37.507l1.627-1.868 1.23-2.16-2.431-13.16-2.42-4.652-1.762 1.786-3.172 1.433 2.89-2.49 2.514-3.243 3.242-6.766-1.32-3.644-3.854-2.06-3.722-.067 2.775-7.659.183-7.293-1.761-1.263-.964-1.661 1.694 1.462 1.197.532 1.362.1 1.528-2.127.627-1.684 1.268.423.27-3.09.876-.65.714.349 1.36-3.082-.363-3.331-1.661-2.924-2.924-1.33-2.99-.332 1.395-.265 2.658.265.731-7.376 2.592-1.994V34.631l-.907.096-1.574.822.387-2.361 1.105-.987 1.186.07s.078-.773.027-.81h-.003c-.059 0-2.092-.33-2.092-.33l-1.127 3.032-1.034-1.246 1.221-1.562s-1.636-.583-1.69-.665l-.001-.003v-.001l.47-1.223-2.02.424-.952-1.058-.576.059.517-.74-.529-.376.482-.364.517.164.564-.27-.505 1.363.904.857 1.234-.904 1.007-1.687 1.545-1.146-.432-1.911-1.496-2.542-2.11-1.728-.614-2.492-2.858-1.276-.846.987-.094.987-.799-1.316-2.114-.94-.047-1.973-.658-1.551 1.692.61.705-.751.846.752 1.127-.564 1.316.94.752-.235.893.14-.094-1.691-1.974-.517 1.128-.799-1.927-2.161-1.174 1.362 1.08 1.128-.94.658L60.902 8.6l-1.363 2.82-.752-1.128.94-2.115-1.786.47-2.725-1.128 2.302-2.396V3.806L55.5 2.791h-3.97l-.238.84-.928.81.27 1.656.599.74.482-.035.47 1.022.023 1.41.74.14.212.6-1.27.728.412 1.659-1.728.93-3.124 1.794-.797-.73.598-1.662-1.927 1.263 1.927 2.725 2.392-1.529 2.725-.2-.997.865-1.66.066-.2.93-.997.665-1.595-.532-3.257.864.466 1.927 1.86-.2.465 1.463-2.193-.798-1.594.931.597.997-1.329.863.997.997-.93.864.665 1.529-2.99-.797-.998-2.06.266-2.792 1.595-2.591.665-1.064-.2-1.395-1.13-.067.266-1.196 1.13-1.33 1.196-.065 1.462-2.593 2.326 1.064 1.196-.665.067-1.063.73-.598-.198-.93 1.13-1.662.066-1.927zm9.503 13.624-.366 1.628.598.697-.332.35.715.697 1.362.35-.15.98.698.547.947-.714 1.562.565v.914l1.877 1.462-.714.332-1.711-1.711-.815.266-.664-.548-1.113.481.232 1.678-.498.997.116-2.293-.498-.531-.681.515-.665-.316.764-.648-1.827-1.18-.216-1.113.581-1.893.05-.748zm-12.36 5.706.575.975.929-.094 1.221 1.234-.305 1.315-1.093-.293-.599.658.764 1.433-.823.834-.645 1.774-1.082.012-.916-.917.353-1.95.658-.705.011-1.08-.634-.776.129-1.55zm2.197 3.96.481 1.902-.94-.481.118-.881zm-1.467 6.682 1.412.315-.183.615.98.183.848 1.844-1.38-.166-.032-.815-1.81-.016-.3 1.296-.88-.482-.3.432-1.545.15.05.68-1.628.05-.665-1.046.548-1.396.948-.249 1.345.698.964-1.296h1.479zm3.456 5.682.515 1.13-.73-.167-.583.715-1.694-.582.315-.864s1.33-.1 1.396-.1zm-10.682 7.889 9.257 3.477 7.988 1.88 8.6.704-1.41 1.128.564 2.02-1.598 1.504-1.974 5.122-2.537 1.692-2.02 5.498-3.008 2.02-2.585-2.396-4.182-1.08-1.598-5.828-3.148-4.652.423-5.169zM84.161 2.866l-9.304 19.878h6.062l1.974-4.934h9.633l2.067 4.887 5.874-.047-9.304-19.784zm3.572 2.726 3.571 9.07h-7.143zm11.56 24.036h-23.19v3.242h8.622v16.47h6.062V32.989h8.459zM85.336 56.296h-6.015v19.736H98.4v-3.29H85.242Zm5.827 26.591-6.955.006-9.304 19.83h6.11l1.785-4.887h9.774l1.974 4.887h6.014zm-3.454 2.778 3.595 9.093h-7.119zm10.679 28.938s-.598-5.117-10.201-5.15-10.866 3.788-11.132 4.884c-.265 1.097-.232 5.283 9.736 6.646s5.715 4.85 5.715 4.85-7.908 3.19-10.998-2.092l-5.881.465s1.827 5.881 12.26 5.648c10.434-.232 11.198-4.685 11.198-4.685s1.43-3.92-3.788-5.947c-5.216-2.027-10.333-1.562-12.128-3.59-1.794-2.026 2.06-3.222 4.253-3.222s4.748.325 5.118 2.558c.02.128 5.848-.365 5.848-.365" style="fill:#000"/></svg>
