<svg xmlns="http://www.w3.org/2000/svg" xml:space="preserve" width="512" height="512" viewBox="0 0 135.467 135.467"><path d="M18.982-3.17v15.904l2.28 3.54-2.341 16.215-.022 10.046 3.384 9.041v6.505l2.762 6.059.18 16.124 2.85 8.017-.355 11.403 2.494 6.06 4.453 4.096-4.166-1.957-3.057-2.899-.348 11.092 8.003 20.626 61.348.03 3.568-10.902.49-19.553-4.721-3.386-2.585-4.454 4.542 3.92 3.21 1.426 3.651.269 4.097-5.703 1.68-4.515 3.4 1.134.724-8.285 2.35-1.743 1.913.936 3.647-8.263-.973-8.931-4.454-7.84-7.84-3.566-8.016-.89 3.74-.71 7.127.71 1.96-19.776 6.949-5.346V-3.14zm16.624 16.655 24.819 9.323 21.417 5.04 23.058 1.888-3.78 3.024 1.511 5.416-4.284 4.032-5.293 13.733-6.802 4.537-5.416 14.74-8.065 5.416-6.93-6.424-11.213-2.895-4.284-15.626-8.44-12.473 1.134-13.858z" style="fill:#fff"/></svg>
